HIERARCHY
ROOT Hips
{
	OFFSET 0.717293 88.513641 3.606412
	CHANNELS 6 Xposition Yposition Zposition Zrotation Yrotation Xrotation 
	JOINT Spine
	{
		OFFSET -0.000000 8.814246 -2.080107
		CHANNELS 3 Zrotation Yrotation Xrotation
		JOINT Spine1
		{
			OFFSET -0.000000 8.844141 -0.000000
			CHANNELS 3 Zrotation Yrotation Xrotation
			JOINT Spine2
			{
				OFFSET 0.000000 11.682268 0.000000
				CHANNELS 3 Zrotation Yrotation Xrotation
				JOINT Spine3
				{
					OFFSET 0.000000 11.746700 -0.000000
					CHANNELS 3 Zrotation Yrotation Xrotation
					JOINT Neck
					{
						OFFSET 0.000000 17.658264 0.000000
						CHANNELS 3 Zrotation Yrotation Xrotation
						JOINT Neck1
						{
							OFFSET -0.000000 5.101515 -0.000000
							CHANNELS 3 Zrotation Yrotation Xrotation
							JOINT Head
							{
								OFFSET -0.000000 5.101515 -0.000000
								CHANNELS 3 Zrotation Yrotation Xrotation
								JOINT HeadEnd
								{
									OFFSET -0.000000 11.655085 -0.000000
									CHANNELS 3 Zrotation Yrotation Xrotation
									End Site
									{
										OFFSET 0.000000 0.000000 0.000000
									}
								}
							}
						}
					}
					JOINT RightShoulder
					{
						OFFSET -2.625389 11.175210 -0.000000
						CHANNELS 3 Zrotation Yrotation Xrotation
						JOINT RightArm
						{
							OFFSET 0.000000 10.434715 0.000000
							CHANNELS 3 Zrotation Yrotation Xrotation
							JOINT RightForeArm
							{
								OFFSET 0.000000 29.628420 0.000000
								CHANNELS 3 Zrotation Yrotation Xrotation
								JOINT RightHand
								{
									OFFSET 0.000000 22.857611 -0.000000
									CHANNELS 3 Zrotation Yrotation Xrotation
									JOINT RightHandThumb1
									{
										OFFSET -2.867323 3.959563 2.944291
										CHANNELS 3 Zrotation Yrotation Xrotation
										JOINT RightHandThumb2
										{
											OFFSET 0.000000 3.350399 -0.000000
											CHANNELS 3 Zrotation Yrotation Xrotation
											JOINT RightHandThumb3
											{
												OFFSET 0.000000 3.756509 -0.000000
												CHANNELS 3 Zrotation Yrotation Xrotation
												JOINT RightHandThumb4
												{
													OFFSET -0.000000 3.147345 -0.000000
													CHANNELS 3 Zrotation Yrotation Xrotation
													End Site
													{
														OFFSET 0.000000 0.000000 0.000000
													}
												}
											}
										}
									}
									JOINT RightHandIndex1
									{
										OFFSET -0.086752 10.030893 2.345280
										CHANNELS 3 Zrotation Yrotation Xrotation
										JOINT RightHandIndex2
										{
											OFFSET -0.000000 4.061090 -0.000000
											CHANNELS 3 Zrotation Yrotation Xrotation
											JOINT RightHandIndex3
											{
												OFFSET -0.000000 3.248873 0.000000
												CHANNELS 3 Zrotation Yrotation Xrotation
												JOINT RightHandIndex4
												{
													OFFSET -0.000000 2.639709 0.000000
													CHANNELS 3 Zrotation Yrotation Xrotation
													End Site
													{
														OFFSET 0.000000 0.000000 0.000000
													}
												}
											}
										}
									}
									JOINT RightHandMiddle1
									{
										OFFSET 0.104102 9.502952 0.006768
										CHANNELS 3 Zrotation Yrotation Xrotation
										JOINT RightHandMiddle2
										{
											OFFSET 0.000000 4.568727 -0.000000
											CHANNELS 3 Zrotation Yrotation Xrotation
											JOINT RightHandMiddle3
											{
												OFFSET 0.000000 3.654981 -0.000000
												CHANNELS 3 Zrotation Yrotation Xrotation
												JOINT RightHandMiddle4
												{
													OFFSET 0.000000 2.741236 0.000000
													CHANNELS 3 Zrotation Yrotation Xrotation
													End Site
													{
														OFFSET 0.000000 0.000000 0.000000
													}
												}
											}
										}
									}
									JOINT RightHandRing1
									{
										OFFSET 0.086752 8.921708 -2.267442
										CHANNELS 3 Zrotation Yrotation Xrotation
										JOINT RightHandRing2
										{
											OFFSET -0.000000 4.061090 -0.000000
											CHANNELS 3 Zrotation Yrotation Xrotation
											JOINT RightHandRing3
											{
												OFFSET -0.000000 3.654981 0.000000
												CHANNELS 3 Zrotation Yrotation Xrotation
												JOINT RightHandRing4
												{
													OFFSET -0.000000 2.741236 0.000000
													CHANNELS 3 Zrotation Yrotation Xrotation
													End Site
													{
														OFFSET 0.000000 0.000000 0.000000
													}
												}
											}
										}
									}
									JOINT RightHandPinky1
									{
										OFFSET -0.173504 7.976997 -4.467199
										CHANNELS 3 Zrotation Yrotation Xrotation
										JOINT RightHandPinky2
										{
											OFFSET -0.000000 3.350399 -0.000000
											CHANNELS 3 Zrotation Yrotation Xrotation
											JOINT RightHandPinky3
											{
												OFFSET -0.000000 2.842763 0.000000
												CHANNELS 3 Zrotation Yrotation Xrotation
												JOINT RightHandPinky4
												{
													OFFSET 0.000000 2.639709 -0.000000
													CHANNELS 3 Zrotation Yrotation Xrotation
													End Site
													{
														OFFSET 0.000000 0.000000 0.000000
													}
												}
											}
										}
									}
									JOINT RightForeArmEnd
									{
										OFFSET 0.000000 0.000000 0.000000
										CHANNELS 3 Zrotation Yrotation Xrotation
										End Site
										{
											OFFSET 0.000000 0.000000 0.000000
										}
									}
								}
								JOINT RightArmEnd
								{
									OFFSET 0.000000 0.000000 0.000000
									CHANNELS 3 Zrotation Yrotation Xrotation
									End Site
									{
										OFFSET 0.000000 0.000000 0.000000
									}
								}
							}
						}
					}
					JOINT LeftShoulder
					{
						OFFSET 2.625389 11.175210 -0.000000
						CHANNELS 3 Zrotation Yrotation Xrotation
						JOINT LeftArm
						{
							OFFSET 0.000000 10.813635 0.000000
							CHANNELS 3 Zrotation Yrotation Xrotation
							JOINT LeftForeArm
							{
								OFFSET -0.000000 28.724781 -0.000000
								CHANNELS 3 Zrotation Yrotation Xrotation
								JOINT LeftHand
								{
									OFFSET 0.644384 25.716167 -0.328871
									CHANNELS 3 Zrotation Yrotation Xrotation
									JOINT LeftHandThumb1
									{
										OFFSET 2.867323 3.959563 2.944291
										CHANNELS 3 Zrotation Yrotation Xrotation
										JOINT LeftHandThumb2
										{
											OFFSET 0.000000 3.350399 0.000000
											CHANNELS 3 Zrotation Yrotation Xrotation
											JOINT LeftHandThumb3
											{
												OFFSET 0.000000 3.756509 0.000000
												CHANNELS 3 Zrotation Yrotation Xrotation
												JOINT LeftHandThumb4
												{
													OFFSET -0.000000 3.100000 0.000000
													CHANNELS 3 Zrotation Yrotation Xrotation
													End Site
													{
														OFFSET 0.000000 0.000000 0.000000
													}
												}
											}
										}
									}
									JOINT LeftHandIndex1
									{
										OFFSET 0.086752 10.030893 2.345280
										CHANNELS 3 Zrotation Yrotation Xrotation
										JOINT LeftHandIndex2
										{
											OFFSET -0.000000 4.061090 -0.000000
											CHANNELS 3 Zrotation Yrotation Xrotation
											JOINT LeftHandIndex3
											{
												OFFSET -0.000000 3.248873 -0.000000
												CHANNELS 3 Zrotation Yrotation Xrotation
												JOINT LeftHandIndex4
												{
													OFFSET -0.000000 2.639709 -0.000000
													CHANNELS 3 Zrotation Yrotation Xrotation
													End Site
													{
														OFFSET 0.000000 0.000000 0.000000
													}
												}
											}
										}
									}
									JOINT LeftHandMiddle1
									{
										OFFSET -0.104102 9.502952 0.006768
										CHANNELS 3 Zrotation Yrotation Xrotation
										JOINT LeftHandMiddle2
										{
											OFFSET 0.000000 4.568727 -0.000000
											CHANNELS 3 Zrotation Yrotation Xrotation
											JOINT LeftHandMiddle3
											{
												OFFSET 0.000000 3.654981 0.000000
												CHANNELS 3 Zrotation Yrotation Xrotation
												JOINT LeftHandMiddle4
												{
													OFFSET 0.000000 2.741236 0.000000
													CHANNELS 3 Zrotation Yrotation Xrotation
													End Site
													{
														OFFSET 0.000000 0.000000 0.000000
													}
												}
											}
										}
									}
									JOINT LeftHandRing1
									{
										OFFSET -0.086752 8.921708 -2.267442
										CHANNELS 3 Zrotation Yrotation Xrotation
										JOINT LeftHandRing2
										{
											OFFSET -0.000000 4.061090 -0.000000
											CHANNELS 3 Zrotation Yrotation Xrotation
											JOINT LeftHandRing3
											{
												OFFSET 0.000000 3.654981 0.000000
												CHANNELS 3 Zrotation Yrotation Xrotation
												JOINT LeftHandRing4
												{
													OFFSET -0.000000 2.741236 -0.000000
													CHANNELS 3 Zrotation Yrotation Xrotation
													End Site
													{
														OFFSET 0.000000 0.000000 0.000000
													}
												}
											}
										}
									}
									JOINT LeftHandPinky1
									{
										OFFSET 0.173504 7.976997 -4.467199
										CHANNELS 3 Zrotation Yrotation Xrotation
										JOINT LeftHandPinky2
										{
											OFFSET 0.000000 3.350399 -0.000000
											CHANNELS 3 Zrotation Yrotation Xrotation
											JOINT LeftHandPinky3
											{
												OFFSET 0.000000 2.842763 0.000000
												CHANNELS 3 Zrotation Yrotation Xrotation
												JOINT LeftHandPinky4
												{
													OFFSET -0.000000 2.639709 -0.000000
													CHANNELS 3 Zrotation Yrotation Xrotation
													End Site
													{
														OFFSET 0.000000 0.000000 0.000000
													}
												}
											}
										}
									}
									JOINT LeftForeArmEnd
									{
										OFFSET 0.000000 0.000000 0.000000
										CHANNELS 3 Zrotation Yrotation Xrotation
										End Site
										{
											OFFSET 0.000000 0.000000 0.000000
										}
									}
								}
								JOINT LeftArmEnd
								{
									OFFSET 0.000000 0.000000 0.000000
									CHANNELS 3 Zrotation Yrotation Xrotation
									End Site
									{
										OFFSET 0.000000 0.000000 0.000000
									}
								}
							}
						}
					}
				}
			}
		}
	}
	JOINT RightUpLeg
	{
		OFFSET -11.289943 0.000000 -0.000000
		CHANNELS 3 Zrotation Yrotation Xrotation
		JOINT RightLeg
		{
			OFFSET 0.000000 -38.200325 -0.000000
			CHANNELS 3 Zrotation Yrotation Xrotation
			JOINT RightFoot
			{
				OFFSET -0.000000 -39.900856 -0.000000
				CHANNELS 3 Zrotation Yrotation Xrotation
				JOINT RightToeBase
				{
					OFFSET -0.000000 0.000000 15.261641
					CHANNELS 3 Zrotation Yrotation Xrotation
					JOINT RightToeBaseEnd
					{
						OFFSET 0.000000 0.000000 7.370709
						CHANNELS 3 Zrotation Yrotation Xrotation
						End Site
						{
							OFFSET 0.000000 0.000000 0.000000
						}
					}
				}
				JOINT RightLegEnd
				{
					OFFSET 0.000000 0.000000 0.000000
					CHANNELS 3 Zrotation Yrotation Xrotation
					End Site
					{
						OFFSET 0.000000 0.000000 0.000000
					}
				}
			}
			JOINT RightUpLegEnd
			{
				OFFSET 0.000000 0.000000 0.000000
				CHANNELS 3 Zrotation Yrotation Xrotation
				End Site
				{
					OFFSET 0.000000 0.000000 0.000000
				}
			}
		}
	}
	JOINT LeftUpLeg
	{
		OFFSET 11.315661 -0.000000 -0.000000
		CHANNELS 3 Zrotation Yrotation Xrotation
		JOINT LeftLeg
		{
			OFFSET 0.000000 -38.200325 0.000000
			CHANNELS 3 Zrotation Yrotation Xrotation
			JOINT LeftFoot
			{
				OFFSET 0.000000 -39.900856 0.000000
				CHANNELS 3 Zrotation Yrotation Xrotation
				JOINT LeftToeBase
				{
					OFFSET 0.000000 -0.000000 15.261641
					CHANNELS 3 Zrotation Yrotation Xrotation
					JOINT LeftToeBaseEnd
					{
						OFFSET -0.000000 0.000000 7.539996
						CHANNELS 3 Zrotation Yrotation Xrotation
						End Site
						{
							OFFSET 0.000000 0.000000 0.000000
						}
					}
				}
				JOINT LeftLegEnd
				{
					OFFSET 0.000000 0.000000 0.000000
					CHANNELS 3 Zrotation Yrotation Xrotation
					End Site
					{
						OFFSET 0.000000 0.000000 0.000000
					}
				}
			}
			JOINT LeftUpLegEnd
			{
				OFFSET 0.000000 0.000000 0.000000
				CHANNELS 3 Zrotation Yrotation Xrotation
				End Site
				{
					OFFSET 0.000000 0.000000 0.000000
				}
			}
		}
	}
}
MOTION
Frames: 5
Frame Time: 0.016667
6.863451 87.248817 8.072801 0.665351 0.256758 -12.683672 1.339375 0.090186 8.364298 0.406248 0.170995 1.177982 -1.513041 1.485323 5.994503 -1.506650 0.378543 4.480049 -0.897171 0.252242 2.443880 -0.028022 0.098052 -4.563130 0.196482 -0.737110 -20.738155 0.000000 0.000000 0.000000 88.574028 0.326739 9.273723 67.959297 -3.983745 5.038204 -0.814823 16.620722 86.735435 -17.850496 28.674320 -2.121669 6.778900 -1.415461 41.510044 -0.000004 0.000015 -16.726170 0.000002 0.000062 -11.383750 0.000013 0.000005 -0.000011 -3.987924 0.144868 3.294377 0.913572 -0.040039 -0.020807 0.764632 0.002653 -0.046830 -0.000005 0.000016 -0.000004 -3.734795 0.028564 -1.615927 0.826763 -0.024765 -0.013675 0.920538 0.004378 -0.014454 0.000002 0.000073 0.000004 -1.785018 -0.065905 -8.051034 1.390737 0.046481 -0.012560 1.423107 0.008067 -0.007430 0.000013 -0.000094 0.000004 0.570745 -0.147171 -15.734777 2.468198 0.128772 0.053372 2.611127 0.028923 0.011509 -0.000090 0.000001 -0.000022 0.000000 0.000000 0.000000 0.000000 0.000000 0.000000 -86.096817 -0.332581 3.281971 -72.194115 2.536760 -9.510815 0.247317 -14.305003 111.894661 -2.112346 -34.257927 11.669999 -5.993379 1.170450 41.905430 0.000020 0.000010 -15.155610 -0.000050 -0.000033 -10.449344 0.000770 0.000022 0.000761 5.918897 0.128662 6.911693 -1.434208 -0.010279 0.106863 -1.545642 0.004597 0.087211 0.000003 -0.000281 -0.000007 3.569806 0.063705 0.874963 -1.895227 -0.021191 0.025684 -1.799260 0.004497 0.028843 -0.000953 -0.000001 -0.000015 -2.807402 -0.034885 -7.774549 -3.636811 0.053520 -0.054034 -3.204404 -0.000546 -0.046142 0.000346 0.000018 0.000005 -7.572374 -0.193408 -17.170036 -6.089016 0.076187 -0.091683 -6.162745 0.001408 -0.122303 -0.000638 0.000006 -0.000036 0.000000 0.000000 0.000000 0.000000 0.000000 0.000000 -6.668077 -15.111922 20.359518 -0.109103 -0.991617 3.281579 1.650069 -10.936628 15.763379 -1.428527 1.119552 -17.044123 0.000000 0.000000 0.000000 0.000000 0.000000 0.000000 0.000000 0.000000 0.000000 2.830295 0.013454 12.455624 0.105854 0.641785 10.038425 0.676808 2.770652 16.881439 0.569797 -0.697402 -20.220264 0.000000 0.000000 0.000000 0.000000 0.000000 0.000000 0.000000 0.000000 0.000000 
6.877012 87.243034 8.092916 0.641983 0.244728 -12.664256 1.342863 0.086417 8.368488 0.371930 0.182440 1.153841 -1.453327 1.447967 6.024251 -1.502826 0.375847 4.484995 -0.837778 0.348881 2.500915 -0.004042 0.231796 -4.518208 0.172276 -0.734130 -20.720480 0.000000 0.000000 0.000000 88.504570 0.337261 9.255444 68.011528 -3.559674 5.120708 -0.804472 16.807327 87.214050 -17.670551 29.900761 -2.078420 6.969113 -1.441361 41.422394 -0.000004 0.000016 -17.192072 0.000002 0.000062 -11.707827 0.000013 0.000005 -0.000011 -3.062885 0.146116 2.973795 1.172666 -0.047370 -0.005938 1.021682 -0.004354 -0.034087 -0.000005 0.000017 -0.000005 -2.803621 0.028399 -1.825781 1.086707 -0.027711 -0.007922 1.183661 0.002050 -0.009708 0.000002 0.000072 0.000004 -0.786541 -0.065495 -8.099078 1.709560 0.051950 -0.017484 1.744098 0.011575 -0.010635 0.000013 -0.000127 0.000004 1.517555 -0.146998 -15.638610 2.804674 0.140047 0.042120 2.949273 0.038845 0.001554 -0.000067 0.000001 -0.000021 0.000000 0.000000 0.000000 0.000000 0.000000 0.000000 -86.095665 -0.320028 3.293375 -72.086357 2.454576 -9.489574 0.228028 -14.355638 111.976746 -3.586357 -36.113747 11.847519 -6.346340 1.220599 41.737373 0.000020 0.000010 -16.046949 -0.000052 -0.000032 -11.063943 0.000792 0.000022 0.000773 3.946353 0.127872 6.045556 -1.837590 -0.012627 0.116461 -1.950498 0.002079 0.094693 0.000004 -0.000306 -0.000007 1.670812 0.063350 0.250299 -2.338420 -0.022522 0.030277 -2.250936 0.003702 0.032238 -0.000967 -0.000001 -0.000010 -4.825112 -0.034789 -8.046733 -4.298137 0.054024 -0.063345 -3.861367 -0.000209 -0.052976 0.000452 0.000018 0.000005 -9.590593 -0.194985 -17.129181 -6.863509 0.076361 -0.129906 -6.931418 0.001670 -0.151438 -0.000656 0.000006 -0.000036 0.000000 0.000000 0.000000 0.000000 0.000000 0.000000 -6.634449 -15.083808 20.343723 -0.109207 -0.993510 3.289278 1.636264 -10.934071 15.788136 -1.428678 1.125169 -17.042963 0.000000 0.000000 0.000000 0.000000 0.000000 0.000000 0.000000 0.000000 0.000000 2.863466 0.017309 12.445232 0.106672 0.639277 10.080364 0.659023 2.791234 16.855341 0.572225 -0.691731 -20.208042 0.000000 0.000000 0.000000 0.000000 0.000000 0.000000 0.000000 0.000000 0.000000 
6.892587 87.237000 8.110441 0.621157 0.226898 -12.643566 1.346802 0.081403 8.371509 0.343577 0.192714 1.133072 -1.402362 1.414619 6.050128 -1.499168 0.372502 4.491358 -0.781814 0.432121 2.558871 0.018837 0.349218 -4.472461 0.151858 -0.734072 -20.697142 0.000000 0.000000 0.000000 88.427162 0.346533 9.241449 68.058167 -3.183281 5.196903 -0.793071 16.992538 87.675087 -17.518248 31.072161 -2.036192 7.166028 -1.467374 41.331928 -0.000004 0.000016 -17.673590 0.000002 0.000061 -12.044190 0.000012 0.000005 -0.000011 -2.104868 0.147485 2.638361 1.467686 -0.054185 0.006623 1.316328 -0.010873 -0.023121 -0.000004 0.000018 -0.000005 -1.844390 0.028294 -2.044501 1.379442 -0.030447 -0.002946 1.479164 -0.000120 -0.005509 0.000002 0.000071 0.000004 0.225387 -0.065032 -8.151072 2.050271 0.057177 -0.021738 2.086438 0.014904 -0.013301 0.000013 -0.000155 0.000004 2.468006 -0.146790 -15.537067 3.151052 0.150996 0.031708 3.297070 0.048423 -0.007653 -0.000050 0.000001 -0.000021 0.000000 0.000000 0.000000 0.000000 0.000000 0.000000 -86.086670 -0.309613 3.312881 -71.980148 2.398721 -9.454700 0.210160 -14.404062 112.007294 -4.860164 -37.776386 11.972604 -6.693866 1.268362 41.573093 0.000019 0.000010 -16.922827 -0.000054 -0.000031 -11.667232 0.000813 0.000022 0.000790 2.025042 0.127173 5.209045 -2.327507 -0.014557 0.128709 -2.443332 -0.000004 0.104047 0.000006 -0.000311 -0.000007 -0.159433 0.063089 -0.342668 -2.861035 -0.023667 0.035648 -2.781598 0.003023 0.036183 -0.000969 -0.000001 -0.000005 -6.724842 -0.034581 -8.287295 -5.001284 0.054498 -0.073076 -4.562761 0.000135 -0.060015 0.000542 0.000018 0.000005 -11.462836 -0.196431 -17.046858 -7.644010 0.076538 -0.167207 -7.706738 0.001925 -0.179158 -0.000669 0.000006 -0.000036 0.000000 0.000000 0.000000 0.000000 0.000000 0.000000 -6.605711 -15.058539 20.324898 -0.109396 -0.995184 3.293143 1.621377 -10.936608 15.820715 -1.429182 1.129848 -17.043798 0.000000 0.000000 0.000000 0.000000 0.000000 0.000000 0.000000 0.000000 0.000000 2.892267 0.018188 12.428994 0.107470 0.636527 10.128644 0.642936 2.810127 16.831232 0.573801 -0.686494 -20.200743 0.000000 0.000000 0.000000 0.000000 0.000000 0.000000 0.000000 0.000000 0.000000 
6.909197 87.231163 8.125388 0.602733 0.203045 -12.620915 1.350323 0.075107 8.372259 0.319393 0.201760 1.118026 -1.360681 1.381801 6.066599 -1.495429 0.367874 4.498735 -0.725628 0.499419 2.618287 0.040703 0.449959 -4.426072 0.135005 -0.736974 -20.667400 0.000000 0.000000 0.000000 88.340508 0.354466 9.228971 68.099648 -2.859074 5.267248 -0.780793 17.168217 88.107567 -17.386778 32.180477 -1.986734 7.364815 -1.493038 41.240524 -0.000004 0.000017 -18.159706 0.000002 0.000061 -12.384503 0.000012 0.000005 -0.000012 -1.127226 0.149018 2.295247 1.794366 -0.060372 0.016495 1.644377 -0.016808 -0.014279 -0.000004 0.000018 -0.000006 -0.869370 0.028264 -2.265760 1.700787 -0.032929 0.001105 1.802807 -0.002103 -0.001980 0.000002 0.000070 0.000003 1.236683 -0.064605 -8.200821 2.408980 0.062082 -0.025109 2.446135 0.017992 -0.015271 0.000013 -0.000174 0.000004 3.406805 -0.146788 -15.424820 3.503995 0.161423 0.023060 3.650936 0.057455 -0.015300 -0.000037 0.000001 -0.000020 0.000000 0.000000 0.000000 0.000000 0.000000 0.000000 -86.064400 -0.303252 3.339499 -71.887756 2.362571 -9.409857 0.191866 -14.452801 111.977295 -5.928808 -39.273869 12.041258 -7.030304 1.313018 41.415051 0.000019 0.000010 -17.769249 -0.000056 -0.000031 -12.249352 0.000832 0.000022 0.000811 0.176438 0.126710 4.414269 -2.889172 -0.016012 0.143133 -3.008974 -0.001550 0.115061 0.000007 -0.000302 -0.000007 -1.902146 0.062945 -0.894345 -3.447347 -0.024591 0.041584 -3.375004 0.002482 0.040528 -0.000960 -0.000001 -0.000001 -8.486878 -0.034346 -8.488832 -5.728761 0.054938 -0.082927 -5.290811 0.000468 -0.067058 0.000613 0.000018 0.000005 -13.168406 -0.198116 -16.920145 -8.412017 0.076794 -0.202382 -8.469883 0.002198 -0.204756 -0.000677 0.000005 -0.000036 0.000000 0.000000 0.000000 0.000000 0.000000 0.000000 -6.582288 -15.036770 20.301947 -0.109750 -0.996613 3.294035 1.606017 -10.942150 15.861368 -1.429691 1.133613 -17.047466 0.000000 0.000000 0.000000 0.000000 0.000000 0.000000 0.000000 0.000000 0.000000 2.917358 0.017100 12.407089 0.108294 0.633659 10.181442 0.628819 2.826569 16.810078 0.574526 -0.681783 -20.198740 0.000000 0.000000 0.000000 0.000000 0.000000 0.000000 0.000000 0.000000 0.000000 
6.925702 87.225716 8.138111 0.586402 0.173610 -12.596474 1.352600 0.068021 8.370423 0.297236 0.209844 1.108470 -1.326660 1.346994 6.072257 -1.491067 0.362009 4.507153 -0.667481 0.550986 2.679618 0.061797 0.535776 -4.378750 0.121004 -0.742434 -20.632008 0.000000 0.000000 0.000000 88.247040 0.360960 9.215907 68.134041 -2.584118 5.334509 -0.767669 17.332067 88.501175 -17.271492 33.225670 -1.930389 7.563110 -1.518060 41.149220 -0.000004 0.000017 -18.645046 0.000002 0.000060 -12.724608 0.000012 0.000004 -0.000012 -0.139096 0.150683 1.949347 2.151560 -0.065978 0.023627 2.004633 -0.022200 -0.007672 -0.000004 0.000019 -0.000006 0.113921 0.028287 -2.485650 2.050041 -0.035169 0.004183 2.154012 -0.003911 0.000825 0.000002 0.000069 0.000003 2.240858 -0.064262 -8.245317 2.787071 0.066667 -0.027521 2.824583 0.020843 -0.016479 0.000013 -0.000186 0.000004 4.326945 -0.147208 -15.300478 3.866217 0.171337 0.016700 4.013397 0.065922 -0.020886 -0.000026 0.000001 -0.000020 0.000000 0.000000 0.000000 0.000000 0.000000 0.000000 -86.029053 -0.301145 3.371737 -71.812653 2.345733 -9.356750 0.171766 -14.503366 111.887138 -6.808467 -40.634308 12.054385 -7.351639 1.354047 41.265125 0.000019 0.000011 -18.575933 -0.000058 -0.000030 -12.803489 0.000849 0.000022 0.000830 -1.581239 0.126540 3.666893 -3.501429 -0.017055 0.159063 -3.625823 -0.002605 0.127321 0.000008 -0.000285 -0.000007 -3.543596 0.062892 -1.401654 -4.076542 -0.025315 0.047850 -4.010228 0.002064 0.045110 -0.000939 -0.000002 0.000003 -10.104604 -0.034134 -8.651943 -6.464267 0.055354 -0.092661 -6.028563 0.000782 -0.073976 0.000667 0.000018 0.000005 -14.705639 -0.200287 -16.755310 -9.156189 0.077206 -0.234931 -9.209166 0.002532 -0.228079 -0.000682 0.000005 -0.000036 0.000000 0.000000 0.000000 0.000000 0.000000 0.000000 -6.564126 -15.018247 20.274599 -0.110343 -0.998024 3.293832 1.591214 -10.948138 15.907795 -1.430066 1.136757 -17.053352 0.000000 0.000000 0.000000 0.000000 0.000000 0.000000 0.000000 0.000000 0.000000 2.939668 0.014595 12.381347 0.109184 0.630869 10.235524 0.615696 2.841186 16.791153 0.574845 -0.677703 -20.200253 0.000000 0.000000 0.000000 0.000000 0.000000 0.000000 0.000000 0.000000 0.000000 
